<svg width="25" height="25" viewBox="0 0 25 25" fill="none" xmlns="http://www.w3.org/2000/svg">
<g clip-path="url(#clip0)">
<path d="M22.6502 5.58796L22.0982 3.93333C21.888 3.30315 21.3003 2.87971 20.6362 2.87971H15.997V1.36929C15.997 0.614357 15.3832 0 14.6284 0H10.38C9.62546 0 9.01149 0.614357 9.01149 1.36929V2.87971H4.37243C3.7081 2.87971 3.12045 3.30315 2.91026 3.93333L2.35827 5.58796C2.23258 5.96466 2.29628 6.3818 2.52841 6.70395C2.76053 7.0261 3.13609 7.21855 3.5332 7.21855H4.11017L5.38008 22.9219C5.4745 24.0871 6.46327 25 7.63152 25H17.6346C18.8027 25 19.7916 24.0871 19.8859 22.9218L21.1558 7.21855H21.4752C21.8724 7.21855 22.2479 7.0261 22.48 6.70414C22.7122 6.38199 22.7759 5.96466 22.6502 5.58796ZM10.4763 1.46484H14.5321V2.87971H10.4763V1.46484ZM18.4258 22.8037C18.3926 23.214 18.0451 23.5352 17.6346 23.5352H7.63152C7.22106 23.5352 6.87354 23.214 6.84035 22.8037L5.57978 7.21855H19.6862L18.4258 22.8037ZM3.84734 5.75371L4.29995 4.39682C4.31025 4.36554 4.33944 4.34456 4.37243 4.34456H20.6362C20.6692 4.34456 20.6982 4.36554 20.7087 4.39682L21.1613 5.75371H3.84734Z" fill="#EB5757"/>
<path d="M16.0896 22.7518C16.1026 22.7526 16.1153 22.7527 16.1283 22.7527C16.5153 22.7527 16.8388 22.4495 16.859 22.0585L17.5468 8.85542C17.5678 8.45144 17.2573 8.10678 16.8535 8.0858C16.4486 8.06425 16.105 8.37515 16.0839 8.77912L15.3963 21.9822C15.3753 22.3862 15.6856 22.7308 16.0896 22.7518Z" fill="#EB5757"/>
<path d="M8.182 22.0602C8.20337 22.4506 8.52647 22.7527 8.91271 22.7527C8.92606 22.7527 8.93979 22.7524 8.95333 22.7516C9.35712 22.7297 9.66668 22.3844 9.64474 21.9804L8.92434 8.7774C8.90241 8.37342 8.55718 8.06386 8.1532 8.08599C7.74942 8.10792 7.43986 8.45315 7.46179 8.85713L8.182 22.0602Z" fill="#EB5757"/>
<path d="M12.5125 22.7528C12.917 22.7528 13.2449 22.4249 13.2449 22.0203V8.81729C13.2449 8.41274 12.917 8.08487 12.5125 8.08487C12.1079 8.08487 11.78 8.41274 11.78 8.81729V22.0203C11.78 22.4249 12.1079 22.7528 12.5125 22.7528Z" fill="#EB5757"/>
</g>
<defs>
<clipPath id="clip0">
<rect width="25" height="25" fill="white"/>
</clipPath>
</defs>
</svg>
